<?xml version="1.0" standalone="no"?>
<!DOCTYPE svg PUBLIC "-//W3C//DTD SVG 20010904//EN"
 "http://www.w3.org/TR/2001/REC-SVG-20010904/DTD/svg10.dtd">
<svg version="1.0" xmlns="http://www.w3.org/2000/svg"
 width="148.000000pt" height="149.000000pt" viewBox="0 0 148.000000 149.000000"
 preserveAspectRatio="xMidYMid meet">

<g transform="translate(0.000000,149.000000) scale(0.100000,-0.100000)"
fill="#000000" stroke="none">
<path d="M590 1474 c-283 -60 -504 -271 -575 -545 -13 -49 -16 -98 -13 -214 3
-131 7 -159 30 -223 77 -214 246 -383 460 -460 64 -23 92 -27 223 -30 116 -3
165 0 214 13 260 67 476 284 534 534 14 58 14 60 -7 64 -20 4 -20 4 2 6 48 3
5 71 -45 71 -33 0 -110 50 -97 63 6 5 -44 0 -121 -12 -34 -5 -40 -11 -43 -32
l-3 -26 65 12 c46 9 68 9 75 2 19 -19 12 -22 -34 -19 -69 6 -115 -5 -115 -27
0 -17 5 -18 38 -10 62 14 97 10 148 -18 27 -14 65 -35 84 -45 33 -17 33 -18 8
-18 -15 0 -34 7 -42 16 -9 8 -16 13 -16 9 0 -3 -10 1 -22 9 -35 21 -84 29
-144 21 -49 -6 -54 -9 -54 -32 0 -22 2 -24 16 -13 18 16 118 17 154 2 20 -9 9
-11 -60 -12 -47 0 -95 -3 -107 -6 -22 -6 -22 -6 -25 141 l-3 147 -275 109
c-151 60 -282 109 -291 109 -8 0 -107 -40 -220 -90 l-204 -89 -3 -166 c-2
-157 -3 -165 -22 -165 -19 0 -20 7 -20 156 0 170 4 161 -55 139 -57 -22 24 27
263 158 l264 145 120 -54 c66 -30 124 -54 129 -54 5 0 9 7 9 15 0 8 6 15 13
16 6 0 31 2 55 5 l42 6 0 -51 c0 -38 5 -54 18 -62 9 -5 134 -64 277 -129 l260
-118 3 71 c3 78 -21 198 -44 222 -8 7 -14 22 -14 33 0 29 -89 160 -149 220
-178 178 -442 258 -681 206z m-3 -609 c20 -13 40 -22 45 -19 12 8 10 -4 -15
-82 -12 -39 -33 -85 -47 -102 l-24 -30 -21 24 c-23 26 -81 192 -71 201 3 4 6
1 6 -6 0 -8 14 -4 40 10 34 19 40 28 42 58 l1 36 4 -33 c3 -23 14 -39 40 -57z
m-289 -103 c2 -78 0 -102 -10 -102 -10 0 -12 22 -10 91 2 63 0 95 -9 106 -11
13 -10 15 6 12 18 -4 20 -14 23 -107z m131 86 c0 -13 -3 -17 -6 -10 -3 7 -23
12 -49 12 l-44 0 0 -40 c0 -39 1 -40 33 -40 18 0 38 5 45 12 9 9 12 6 12 -17
0 -23 -3 -26 -12 -17 -7 7 -27 12 -45 12 -32 0 -33 -1 -33 -45 l0 -45 38 0
c21 0 48 7 61 16 22 16 23 16 12 -5 -10 -18 -21 -21 -71 -21 l-60 0 0 98 c0
54 3 102 7 105 3 4 30 7 60 7 49 0 53 -2 52 -22z m461 -94 c0 -69 -3 -94 -12
-94 -10 0 -13 26 -13 99 0 75 3 97 13 94 8 -4 12 -33 12 -99z m110 79 c-1 -24
-2 -25 -11 -10 -6 10 -22 17 -39 17 -28 0 -30 -2 -30 -40 0 -34 3 -40 21 -40
11 0 28 4 37 9 14 7 17 4 17 -14 0 -15 -3 -20 -9 -14 -6 5 -23 9 -39 9 -28 0
-29 -1 -25 -45 2 -31 -1 -45 -9 -45 -10 0 -13 25 -13 94 l0 95 38 4 c20 2 43
4 50 5 7 1 12 -9 12 -25z m-306 -8 c14 -14 30 -25 36 -25 6 0 21 11 34 25 27
29 66 34 66 8 0 -9 -19 -40 -41 -70 -40 -51 -43 -53 -60 -37 -17 16 -16 18 29
55 26 22 50 39 54 39 5 0 8 5 8 10 0 18 -23 10 -52 -17 -24 -23 -32 -25 -54
-17 -15 5 -33 19 -42 32 -19 29 -9 28 22 -3z m30 -117 c18 -25 11 -41 -7 -17
-7 8 -21 21 -32 27 -20 11 -20 11 2 12 12 0 29 -10 37 -22z m-24 -20 c26 -29
25 -38 -5 -38 -23 0 -45 24 -45 49 0 18 28 12 50 -11z m-200 -67 c0 -5 -12
-11 -27 -13 -33 -4 -43 -37 -18 -62 22 -22 35 -20 35 4 0 11 5 20 10 20 16 0
11 -40 -6 -47 -8 -3 -26 -1 -40 5 -29 14 -33 56 -7 84 17 19 53 25 53 9z m80
-50 c0 -52 35 -49 43 4 4 28 4 28 6 -6 1 -30 -3 -38 -21 -42 -30 -8 -38 -1
-38 34 0 41 -32 36 -41 -6 l-7 -30 -1 35 c-1 33 1 36 29 38 27 2 30 -1 30 -27z
m125 -6 c0 -22 -6 -33 -22 -40 -13 -5 -23 -15 -23 -22 0 -7 -4 -13 -8 -13 -5
0 -9 25 -9 56 l0 55 31 -3 c27 -3 31 -7 31 -33z m80 1 c0 -36 -26 -56 -49 -37
-31 26 -11 75 29 69 15 -2 20 -11 20 -32z m-279 -172 c-4 -9 -9 -15 -11 -12
-3 3 -3 13 1 22 4 9 9 15 11 12 3 -3 3 -13 -1 -22z m624 16 c0 -5 -4 -10 -10
-10 -5 0 -10 5 -10 10 0 6 5 10 10 10 6 0 10 -4 10 -10z m-789 -29 c16 -16 29
-40 29 -52 0 -26 -36 -69 -58 -69 -9 0 -4 9 13 22 l28 22 -23 18 c-12 10 -17
18 -11 18 6 0 11 11 11 25 0 28 -3 29 -30 15 -11 -6 -16 -17 -13 -28 4 -18
-18 -31 -54 -32 -20 0 -15 44 6 61 42 36 65 36 102 0z m489 15 c0 -8 13 -28
30 -46 25 -26 27 -34 18 -50 -7 -11 -14 -17 -17 -15 -2 3 1 10 7 17 8 10 4 19
-14 37 -13 13 -24 27 -24 31 0 5 -10 7 -22 5 -21 -4 -22 -3 -5 9 14 11 15 15
5 19 -8 4 -7 6 5 6 9 1 17 -5 17 -13z m438 -13 c6 -2 12 4 12 12 0 9 6 12 15
9 8 -4 12 -10 9 -15 -3 -5 1 -9 9 -9 19 0 28 -47 12 -60 -6 -5 -15 -7 -19 -3
-4 4 -4 -1 0 -11 6 -16 4 -18 -19 -12 -14 3 -29 2 -32 -4 -4 -6 7 -10 25 -10
18 0 33 6 36 15 4 8 10 15 15 15 19 0 -23 -48 -47 -54 -35 -9 -84 19 -84 49 1
6 5 2 11 -7 5 -10 15 -18 22 -18 7 0 6 4 -3 10 -13 9 -13 11 0 20 13 10 13 11
0 9 -28 -3 -40 1 -40 12 0 6 7 9 15 5 12 -4 13 -2 3 14 -10 16 -8 22 12 40 18
16 26 18 30 8 3 -7 11 -14 18 -15z m-735 -23 c6 0 -7 -18 -28 -40 -21 -22 -42
-40 -46 -40 -11 0 11 74 25 82 6 4 17 6 24 3 8 -3 19 -5 25 -5z m493 -6 c-3
-9 -6 -18 -6 -20 0 -2 -8 -4 -17 -3 -11 0 -13 3 -5 6 6 2 12 11 12 19 0 8 5
14 11 14 6 0 8 -7 5 -16z m-193 -11 c5 -3 6 -11 3 -19 -3 -8 -1 -14 4 -14 6 0
10 -9 10 -20 0 -11 -6 -20 -13 -20 -9 0 -13 11 -12 30 1 20 -3 30 -12 30 -8 0
-12 -4 -8 -9 3 -5 0 -13 -6 -16 -5 -4 -8 -13 -5 -21 3 -8 1 -14 -4 -14 -6 0
-10 9 -10 20 0 11 4 20 9 20 5 0 7 10 3 22 -3 12 -7 17 -10 10 -2 -6 -10 -12
-18 -12 -12 0 -12 3 -2 14 12 13 47 12 71 -1z m227 -8 c0 -8 -7 -15 -15 -15
-8 0 -15 7 -15 15 0 8 7 15 15 15 8 0 15 -7 15 -15z m-292 -50 c-3 -3 -9 2
-12 12 -6 14 -5 15 5 6 7 -7 10 -15 7 -18z m212 -25 c0 -5 -2 -10 -4 -10 -3 0
-8 5 -11 10 -3 6 -1 10 4 10 6 0 11 -4 11 -10z"/>
<path d="M498 843 c-33 -5 -33 -2 -10 -78 12 -39 24 -61 35 -63 15 -3 17 7 17
72 0 42 -3 75 -7 75 -5 -1 -20 -4 -35 -6z"/>
<path d="M557 843 c-2 -5 -3 -37 -3 -73 1 -50 5 -65 16 -68 11 -2 22 16 37 63
12 36 18 67 15 69 -18 9 -61 15 -65 9z"/>
<path d="M660 560 c0 -33 11 -38 30 -15 15 18 6 45 -15 45 -10 0 -15 -10 -15
-30z"/>
<path d="M736 574 c-9 -23 19 -53 35 -37 15 15 7 47 -12 51 -9 2 -19 -5 -23
-14z"/>
<path d="M1250 342 c0 -12 19 -26 26 -19 2 2 -2 10 -11 17 -9 8 -15 8 -15 2z"/>
<path d="M1250 775 c14 -8 30 -14 35 -14 6 0 -1 6 -15 14 -14 8 -29 14 -35 14
-5 0 1 -6 15 -14z"/>
<path d="M1360 730 c8 -5 20 -10 25 -10 6 0 3 5 -5 10 -8 5 -19 10 -25 10 -5
0 -3 -5 5 -10z"/>
<path d="M1415 712 c16 -13 67 -33 61 -23 -3 5 -20 14 -38 20 -18 6 -28 8 -23
3z"/>
</g>
</svg>
